<svg width="554" height="166" viewBox="0 0 1154 846" fill="none" xmlns="http://www.w3.org/2000/svg">
<path d="M648.992 648.682L657.452 631.102L725.912 489.102L731.912 476.572C732.318 475.713 732.546 474.78 732.58 473.831C732.614 472.881 732.455 471.934 732.112 471.048C731.768 470.162 731.248 469.356 730.583 468.677C729.917 467.999 729.121 467.463 728.242 467.102C727.419 466.769 726.54 466.6 725.652 466.602H685.212C683.364 466.602 681.591 465.871 680.28 464.569C678.968 463.267 678.225 461.5 678.212 459.652V113.052C678.212 111.204 677.481 109.431 676.179 108.12C674.877 106.808 673.11 106.065 671.262 106.052H614.162C612.305 106.052 610.525 106.789 609.212 108.102C607.899 109.415 607.162 111.195 607.162 113.052V459.652C607.149 461.491 606.412 463.251 605.112 464.552C603.811 465.852 602.051 466.589 600.212 466.602H558.872C557.984 466.6 557.105 466.769 556.282 467.102C555.402 467.464 554.605 468.002 553.94 468.683C553.275 469.364 552.756 470.173 552.415 471.061C552.073 471.95 551.916 472.898 551.954 473.849C551.991 474.8 552.222 475.733 552.632 476.592L558.722 489.102L627.902 631.102L636.452 648.712C637.034 649.878 637.931 650.858 639.04 651.542C640.149 652.227 641.428 652.588 642.731 652.584C644.035 652.581 645.311 652.214 646.417 651.525C647.524 650.835 648.415 649.851 648.992 648.682V648.682Z" fill="#4743AD"/>
</svg>
