<svg width="154" height="146" viewBox="0 0 1154 846" fill="none" xmlns="http://www.w3.org/2000/svg">
<g clip-path="url(#clip0_0:1)">
<path d="M475.566 479.919C469.276 479.898 463.014 479.088 456.926 477.508L455.726 477.176L454.613 476.618C414.371 456.442 380.421 429.791 353.706 397.407C331.591 370.442 314.35 339.827 302.757 306.937C288.893 267.559 282.223 226.01 283.066 184.272C283.083 183.396 283.097 182.72 283.097 182.254C283.097 161.964 294.359 144.162 311.788 136.9C325.128 131.342 446.244 81.5948 454.995 78.0004C471.475 69.7427 489.057 76.6351 491.87 77.8403C498.181 80.4206 610.146 126.215 634.341 137.737C659.277 149.611 665.93 170.942 665.93 181.674C665.93 230.263 657.515 275.672 640.919 316.642C627.515 349.804 608.519 380.419 584.756 407.153C538.91 458.747 493.051 477.037 492.608 477.198C487.127 479.084 481.361 480.005 475.566 479.919ZM464.781 453.205C468.757 454.097 477.911 455.434 483.877 453.257C491.456 450.493 529.839 430.589 565.707 390.225C615.264 334.456 640.41 264.35 640.446 181.854C640.358 180.182 639.171 168.262 623.385 160.745C599.659 149.447 483.281 101.86 482.108 101.381L481.787 101.244C479.348 100.222 471.586 98.0695 466.236 100.873L465.165 101.373C463.868 101.905 335.302 154.71 321.59 160.423C311.998 164.42 308.581 174.321 308.581 182.254C308.581 182.833 308.566 183.677 308.545 184.767C307.449 241.214 320.511 380.113 464.781 453.205Z" fill="#3F3D56"/>
<path d="M460.324 89.5861C460.324 89.5861 330.589 142.87 316.689 148.662C302.789 154.453 295.839 168.353 295.839 182.254C295.839 196.154 285.414 377.532 460.324 465.228C460.324 465.228 476.199 469.62 488.243 465.228C500.287 460.835 653.188 386.701 653.188 181.674C653.188 181.674 653.188 160.824 628.863 149.241C604.538 137.657 486.929 89.5861 486.929 89.5861C486.929 89.5861 472.486 83.2152 460.324 89.5861Z" fill="#4743AD"/>
<path opacity="0.1" d="M474.224 131.286V415.537C474.224 415.537 343.331 352.53 344.49 186.887L474.224 131.286Z" fill="black"/>
<path d="M475.931 335.581L434.235 281.969L458.483 263.11L478.226 288.494L544.921 218.088L567.224 239.219L475.931 335.581Z" fill="white"/>
<path d="M1101.07 658H720.07C719.805 658 719.551 657.895 719.363 657.707C719.176 657.52 719.07 657.265 719.07 657C719.07 656.735 719.176 656.48 719.363 656.293C719.551 656.105 719.805 656 720.07 656H1101.07C1101.34 656 1101.59 656.105 1101.78 656.293C1101.97 656.48 1102.07 656.735 1102.07 657C1102.07 657.265 1101.97 657.52 1101.78 657.707C1101.59 657.895 1101.34 658 1101.07 658Z" fill="#CACACA"/>
</g>
<defs>
<clipPath id="clip0_0:1">
<rect width="819.07" height="584" fill="white" transform="translate(283 74)"/>
</clipPath>
</defs>
</svg>
