<svg width="146" height="120" viewBox="0 0 1146 820" fill="none" xmlns="http://www.w3.org/2000/svg">
<path opacity="0.1" d="M659.03 289.85H645.48V263.53C645.48 233.83 621.8 209.14 592.1 208.69C584.938 208.615 577.833 209.958 571.192 212.641C564.552 215.325 558.508 219.296 553.41 224.325C548.311 229.355 544.258 235.344 541.485 241.948C538.711 248.551 537.272 255.638 537.25 262.8V289.85H523.73C517.755 289.868 512.03 292.25 507.805 296.475C503.58 300.7 501.198 306.425 501.18 312.4V420.62C501.198 426.595 503.58 432.32 507.805 436.545C512.03 440.77 517.755 443.152 523.73 443.17H659.03C665.004 443.152 670.728 440.769 674.951 436.544C679.175 432.319 681.554 426.594 681.57 420.62V312.4C681.554 306.426 679.175 300.701 674.951 296.476C670.728 292.251 665.004 289.869 659.03 289.85ZM599.28 360.2V398.96C599.293 401.012 598.526 402.993 597.133 404.501C595.74 406.008 593.827 406.93 591.78 407.08C590.711 407.13 589.644 406.963 588.642 406.588C587.639 406.214 586.724 405.64 585.95 404.902C585.176 404.163 584.559 403.275 584.138 402.292C583.717 401.308 583.5 400.25 583.5 399.18V360.18C579.842 358.396 576.896 355.425 575.144 351.751C573.391 348.077 572.936 343.918 573.851 339.953C574.767 335.987 576.999 332.448 580.185 329.915C583.37 327.381 587.32 326.001 591.39 326.001C595.46 326.001 599.41 327.381 602.595 329.915C605.781 332.448 608.013 335.987 608.929 339.953C609.844 343.918 609.389 348.077 607.636 351.751C605.884 355.425 602.938 358.396 599.28 360.18V360.2ZM629.72 289.85H553.03V262.8C553.03 252.634 557.068 242.885 564.257 235.697C571.445 228.508 581.194 224.47 591.36 224.47C601.526 224.47 611.275 228.508 618.463 235.697C625.652 242.885 629.69 252.634 629.69 262.8L629.72 289.85Z" fill="black"/>
<path d="M659.03 287.85H645.48V261.53C645.48 231.83 621.8 207.14 592.1 206.69C584.938 206.615 577.833 207.958 571.192 210.641C564.552 213.325 558.508 217.296 553.41 222.325C548.311 227.355 544.258 233.344 541.485 239.948C538.711 246.551 537.272 253.638 537.25 260.8V287.85H523.73C517.755 287.868 512.03 290.25 507.805 294.475C503.58 298.7 501.198 304.425 501.18 310.4V418.62C501.198 424.595 503.58 430.32 507.805 434.545C512.03 438.77 517.755 441.152 523.73 441.17H659.03C665.004 441.152 670.728 438.769 674.951 434.544C679.175 430.319 681.554 424.594 681.57 418.62V310.4C681.554 304.426 679.175 298.701 674.951 294.476C670.728 290.251 665.004 287.869 659.03 287.85V287.85ZM599.28 358.2V396.96C599.293 399.012 598.526 400.993 597.133 402.501C595.74 404.008 593.827 404.93 591.78 405.08C590.711 405.13 589.644 404.963 588.642 404.588C587.639 404.214 586.724 403.64 585.95 402.902C585.176 402.163 584.559 401.275 584.138 400.292C583.717 399.308 583.5 398.25 583.5 397.18V358.18C579.842 356.396 576.896 353.425 575.144 349.751C573.391 346.077 572.936 341.918 573.851 337.953C574.767 333.987 576.999 330.448 580.185 327.915C583.37 325.381 587.32 324.001 591.39 324.001C595.46 324.001 599.41 325.381 602.595 327.915C605.781 330.448 608.013 333.987 608.929 337.953C609.844 341.918 609.389 346.077 607.636 349.751C605.884 353.425 602.938 356.396 599.28 358.18V358.2ZM629.72 287.85H553.03V260.8C553.03 250.634 557.068 240.885 564.257 233.697C571.445 226.508 581.194 222.47 591.36 222.47C601.526 222.47 611.275 226.508 618.463 233.697C625.652 240.885 629.69 250.634 629.69 260.8L629.72 287.85Z" fill="#4E9F3D"/>
</svg>
