<svg width="454" height="126" viewBox="0 0 182 547" fill="none" xmlns="http://www.w3.org/2000/svg">
<path d="M84.5408 542.682L76.0808 525.102L7.62073 383.102L1.62073 370.572C1.2143 369.713 0.987016 368.78 0.952698 367.831C0.918379 366.881 1.07777 365.934 1.42114 365.048C1.76451 364.162 2.28468 363.356 2.94995 362.677C3.61522 361.999 4.41168 361.463 5.29077 361.102C6.1137 360.769 6.99321 360.6 7.88074 360.602H48.3207C50.1686 360.602 51.9416 359.871 53.2529 358.569C54.5643 357.267 55.3075 355.5 55.3207 353.652L55.3207 7.05188C55.3207 5.204 56.0513 3.43105 57.3533 2.11972C58.6552 0.808394 60.4229 0.0650791 62.2708 0.0518799L119.371 0.0518799C121.227 0.0518799 123.008 0.789357 124.321 2.10211C125.633 3.41487 126.371 5.19536 126.371 7.05188L126.371 353.652C126.384 355.491 127.12 357.251 128.421 358.552C129.721 359.852 131.482 360.589 133.321 360.602H174.661C175.548 360.6 176.428 360.769 177.251 361.102C178.131 361.464 178.927 362.002 179.592 362.683C180.257 363.364 180.776 364.173 181.118 365.061C181.46 365.95 181.617 366.898 181.579 367.849C181.542 368.8 181.311 369.733 180.901 370.592L174.811 383.102L105.631 525.102L97.0808 542.712C96.4984 543.878 95.6021 544.858 94.4927 545.542C93.3833 546.227 92.1049 546.588 90.8015 546.584C89.498 546.581 88.2214 546.214 87.1152 545.525C86.0091 544.835 85.1175 543.851 84.5408 542.682V542.682Z" fill="#4E9F3D"/>
</svg>
